<svg width="111" height="100" viewBox="0 0 111 100" fill="none" xmlns="http://www.w3.org/2000/svg">
<g clip-path="url(#clip0_420_5767)">
<path d="M77.6422 22.0991L66.0714 73.1498L72.2792 99.06L83.8501 48.0167L77.6422 22.0991Z" fill="#16181C"/>
<path d="M44.7663 8.85059L31.2046 68.6846L36.3986 99.0599L49.9604 39.2258L44.7663 8.85059Z" fill="#16181C"/>
<path d="M22.9545 0.0600586L20.9635 8.85077L0.518066 99.0601H24.3136L31.2046 68.6848L44.7664 8.85077L22.9545 0.0600586Z" fill="#FF512F"/>
<path d="M55.8377 13.3086L53.8394 22.0993V22.1066L49.9604 39.2262L36.3987 99.0602H60.1942L66.0714 73.15L77.6423 22.0993L55.8377 13.3086Z" fill="#317AFF"/>
<path d="M88.7135 26.564L83.8501 48.0165L72.2793 99.0599H96.0748L110.518 35.3547L88.7135 26.564Z" fill="#91919D"/>
</g>
<defs>
<clipPath id="clip0_420_5767">
<rect width="110" height="99" fill="white" transform="translate(0.518066 0.0600586)"/>
</clipPath>
</defs>
</svg>
