<svg width="300" height="51" viewBox="0 0 300 51" fill="none" xmlns="http://www.w3.org/2000/svg">
<g clip-path="url(#clip0_10_1051)">
<path d="M83.7754 20.063C83.7835 19.5867 83.9738 19.1322 84.3062 18.7953C84.6386 18.4585 85.087 18.2656 85.557 18.2573H85.9688C86.3117 18.2614 86.6476 18.3561 86.9434 18.532C87.2392 18.708 87.4846 18.959 87.6553 19.2605L99.0577 36.635L110.46 19.2605C110.632 18.9623 110.878 18.7154 111.174 18.5449C111.471 18.3744 111.806 18.2862 112.147 18.2894H112.558C113.022 18.2975 113.465 18.4862 113.795 18.8164C114.126 19.1466 114.318 19.593 114.332 20.063V49.1462C114.334 49.6289 114.15 50.0933 113.818 50.4398C113.487 50.7864 113.034 50.9875 112.558 51C112.076 50.9898 111.617 50.7912 111.276 50.4457C110.935 50.1003 110.739 49.6347 110.729 49.1462V25.0225L100.515 40.2704C100.366 40.5446 100.149 40.7742 99.8845 40.9362C99.6203 41.0982 99.3188 41.1869 99.0102 41.1933C98.6895 41.1936 98.3745 41.1085 98.0965 40.9466C97.8186 40.7846 97.5875 40.5514 97.4265 40.2704L87.2911 25.0707V49.1944C87.2911 49.6669 87.1059 50.12 86.7762 50.4542C86.4466 50.7883 85.9995 50.976 85.5332 50.976C85.067 50.976 84.6199 50.7883 84.2903 50.4542C83.9606 50.12 83.7754 49.6669 83.7754 49.1944V20.063Z" fill="#16181C"/>
<path d="M132.805 20.0629C132.789 19.813 132.824 19.5623 132.907 19.3264C132.99 19.0905 133.12 18.8744 133.289 18.6915C133.458 18.5086 133.662 18.3628 133.888 18.2632C134.115 18.1635 134.36 18.1121 134.607 18.1121C134.854 18.1121 135.099 18.1635 135.325 18.2632C135.552 18.3628 135.756 18.5086 135.925 18.6915C136.094 18.8744 136.224 19.0905 136.307 19.3264C136.39 19.5623 136.425 19.813 136.408 20.0629V49.1462C136.425 49.3961 136.39 49.6468 136.307 49.8827C136.224 50.1186 136.094 50.3346 135.925 50.5175C135.756 50.7004 135.552 50.8462 135.325 50.9459C135.099 51.0456 134.854 51.097 134.607 51.097C134.36 51.097 134.115 51.0456 133.888 50.9459C133.662 50.8462 133.458 50.7004 133.289 50.5175C133.12 50.3346 132.99 50.1186 132.907 49.8827C132.824 49.6468 132.789 49.3961 132.805 49.1462V20.0629Z" fill="#16181C"/>
<path d="M154.882 20.0629C154.888 19.5873 155.076 19.1328 155.407 18.7957C155.738 18.4587 156.186 18.2655 156.655 18.2572H157.162C157.529 18.2668 157.887 18.3686 158.205 18.5536C158.523 18.7385 158.79 19.0007 158.983 19.3165L178.367 44.3711V19.9826C178.351 19.7392 178.384 19.4949 178.465 19.265C178.546 19.0352 178.673 18.8246 178.837 18.6463C179.002 18.4681 179.2 18.326 179.421 18.2288C179.642 18.1317 179.88 18.0815 180.121 18.0815C180.362 18.0815 180.6 18.1317 180.821 18.2288C181.042 18.326 181.241 18.4681 181.405 18.6463C181.57 18.8246 181.696 19.0352 181.777 19.265C181.858 19.4949 181.891 19.7392 181.875 19.9826V49.1943C181.89 49.4185 181.858 49.6433 181.781 49.8541C181.704 50.065 181.585 50.2572 181.43 50.4183C181.276 50.5794 181.09 50.7059 180.884 50.7895C180.678 50.8731 180.457 50.912 180.236 50.9036H180.054C179.675 50.8797 179.308 50.7673 178.979 50.5751C178.651 50.383 178.371 50.1164 178.161 49.7962L158.366 24.1156V49.1943C158.382 49.4378 158.348 49.682 158.268 49.9119C158.187 50.1417 158.06 50.3523 157.896 50.5306C157.731 50.7088 157.532 50.8509 157.312 50.9481C157.091 51.0452 156.853 51.0954 156.612 51.0954C156.371 51.0954 156.133 51.0452 155.912 50.9481C155.691 50.8509 155.492 50.7088 155.328 50.5306C155.163 50.3523 155.037 50.1417 154.956 49.9119C154.875 49.682 154.842 49.4378 154.858 49.1943L154.882 20.0629Z" fill="#16181C"/>
<path d="M200.333 20.0629C200.316 19.813 200.351 19.5623 200.434 19.3264C200.517 19.0905 200.647 18.8744 200.816 18.6915C200.985 18.5086 201.189 18.3628 201.416 18.2632C201.642 18.1635 201.887 18.1121 202.134 18.1121C202.381 18.1121 202.626 18.1635 202.852 18.2632C203.079 18.3628 203.283 18.5086 203.452 18.6915C203.621 18.8744 203.751 19.0905 203.834 19.3264C203.917 19.5623 203.952 19.813 203.935 20.0629V49.1462C203.952 49.3961 203.917 49.6468 203.834 49.8827C203.751 50.1186 203.621 50.3346 203.452 50.5175C203.283 50.7004 203.079 50.8462 202.852 50.9459C202.626 51.0456 202.381 51.097 202.134 51.097C201.887 51.097 201.642 51.0456 201.416 50.9459C201.189 50.8462 200.985 50.7004 200.816 50.5175C200.647 50.3346 200.517 50.1186 200.434 49.8827C200.351 49.6468 200.316 49.3961 200.333 49.1462V20.0629Z" fill="#16181C"/>
<path d="M222.425 20.063C222.431 19.5874 222.619 19.1329 222.95 18.7958C223.282 18.4588 223.729 18.2656 224.198 18.2573H224.61C224.953 18.2614 225.289 18.3561 225.585 18.532C225.881 18.708 226.126 18.959 226.297 19.2605L237.699 36.635L249.101 19.2605C249.273 18.9623 249.519 18.7154 249.816 18.5449C250.112 18.3744 250.447 18.2862 250.788 18.2894H251.2C251.664 18.2974 252.108 18.4858 252.44 18.8158C252.771 19.1459 252.965 19.5923 252.981 20.063V49.1462C252.981 49.6297 252.795 50.094 252.462 50.4403C252.13 50.7867 251.676 50.9875 251.2 51C250.718 50.9897 250.26 50.7909 249.92 50.4452C249.581 50.0995 249.387 49.634 249.378 49.1462V25.0225L239.132 40.2303C238.984 40.505 238.767 40.7351 238.503 40.8972C238.238 41.0593 237.937 41.1476 237.628 41.1532C237.314 41.1473 237.006 41.0593 236.736 40.8976C236.465 40.7359 236.241 40.506 236.084 40.2303L225.932 25.0707V49.1944C225.949 49.4379 225.915 49.6821 225.834 49.912C225.754 50.1418 225.627 50.3524 225.463 50.5307C225.298 50.7089 225.099 50.851 224.878 50.9482C224.658 51.0453 224.419 51.0955 224.179 51.0955C223.938 51.0955 223.7 51.0453 223.479 50.9482C223.258 50.851 223.059 50.7089 222.895 50.5307C222.73 50.3524 222.604 50.1418 222.523 49.912C222.442 49.6821 222.408 49.4379 222.425 49.1944V20.063Z" fill="#16181C"/>
<path d="M269.166 48.3598L282.12 19.6617C282.287 19.1856 282.596 18.7744 283.005 18.4864C283.415 18.1984 283.903 18.048 284.401 18.0567H284.583C285.076 18.0459 285.559 18.1961 285.961 18.4851C286.363 18.7742 286.663 19.1867 286.816 19.6617L299.77 48.3196C299.905 48.6094 299.983 48.9228 300 49.2425C300 49.7087 299.817 50.1557 299.492 50.4853C299.167 50.8149 298.726 51.0001 298.266 51.0001C297.871 50.9826 297.49 50.8456 297.172 50.6067C296.855 50.3678 296.615 50.038 296.484 49.6599L293.159 42.2125H275.643L272.318 49.7562C272.196 50.1235 271.962 50.4424 271.651 50.6672C271.34 50.8921 270.966 51.0114 270.584 51.0081C270.367 51.0092 270.153 50.9667 269.953 50.883C269.753 50.7994 269.572 50.6764 269.419 50.5211C269.267 50.3657 269.146 50.1812 269.065 49.9783C268.983 49.7753 268.942 49.558 268.944 49.3388C268.939 48.9991 269.015 48.6632 269.166 48.3598V48.3598ZM291.741 38.8901L284.401 22.3421L277.061 38.8901H291.741Z" fill="#16181C"/>
<path d="M39.1163 11.3556L33.2489 37.6461L36.4004 51L42.2678 24.7015L39.1163 11.3556Z" fill="#16181C"/>
<path d="M22.4405 4.52625L15.5674 35.351L18.1963 51L25.0772 20.1753L22.4405 4.52625Z" fill="#16181C"/>
<path d="M11.3786 0L10.373 4.5262L0 51H12.0675L15.5673 35.3509L22.4404 4.5262L11.3786 0Z" fill="#FF512F"/>
<path d="M28.0544 6.82947L27.0488 11.3557L25.0772 20.1753L18.1962 51H30.2715L33.2488 37.6461L39.1163 11.3557L28.0544 6.82947Z" fill="#317AFF"/>
<path d="M44.7304 13.6509L42.2678 24.7015L36.4004 51.0001H48.4679L55.7923 18.1771L44.7304 13.6509Z" fill="#91919D"/>
</g>
<defs>
<clipPath id="clip0_10_1051">
<rect width="300" height="51" fill="white"/>
</clipPath>
</defs>
</svg>
