<svg width="142" height="142" viewBox="0 0 142 142" fill="none" xmlns="http://www.w3.org/2000/svg">
<g clip-path="url(#clip0_221_3068)">
<path d="M-3.39365e-05 121.962C0.00523924 121.654 0.129975 121.36 0.347801 121.142C0.565628 120.925 0.859537 120.8 1.16754 120.795H1.43734C1.6602 120.796 1.87899 120.855 2.07249 120.965C2.26599 121.076 2.42764 121.234 2.54178 121.426L10.0299 132.688L17.518 121.426C17.6298 121.232 17.7909 121.072 17.985 120.961C18.179 120.85 18.399 120.793 18.6225 120.795H18.8923C19.2003 120.8 19.4942 120.925 19.7121 121.142C19.9299 121.36 20.0546 121.654 20.0599 121.962V140.801C20.0608 141.114 19.939 141.415 19.7208 141.639C19.5025 141.863 19.2051 141.992 18.8923 142C18.5763 141.994 18.275 141.866 18.0517 141.642C17.8284 141.418 17.7004 141.117 17.6948 140.801V125.167L10.9861 135.021C10.7163 135.41 10.4165 135.619 9.99678 135.619C9.57709 135.619 9.24735 135.41 8.97912 135.021L2.2988 125.197V140.831C2.30135 140.985 2.27292 141.138 2.21517 141.281C2.15742 141.424 2.07154 141.554 1.96264 141.663C1.85373 141.772 1.72399 141.858 1.58117 141.916C1.43835 141.974 1.28537 142.002 1.13126 142C0.979425 141.999 0.829272 141.968 0.68955 141.909C0.549829 141.849 0.423333 141.763 0.317448 141.654C0.211562 141.545 0.128395 141.416 0.0728073 141.275C0.0172198 141.134 -0.00966566 140.983 -0.00631269 140.831L-3.39365e-05 121.962Z" fill="#001C32"/>
<path d="M32.1978 121.932C32.1969 121.619 32.3187 121.319 32.537 121.095C32.7553 120.871 33.0527 120.742 33.3653 120.735C33.683 120.735 33.9874 120.861 34.2122 121.086C34.4369 121.31 34.5636 121.615 34.5644 121.932V140.801C34.5636 141.119 34.437 141.423 34.2123 141.648C33.9876 141.873 33.6831 141.999 33.3653 142C33.0525 141.993 32.7551 141.863 32.5368 141.639C32.3186 141.415 32.1968 141.114 32.1978 140.801V121.932Z" fill="#001C32"/>
<path d="M46.6944 121.962C46.6996 121.654 46.8243 121.36 47.0422 121.142C47.26 120.925 47.5539 120.8 47.8619 120.795H48.1917C48.7313 120.795 49.0594 121.063 49.3892 121.483L62.1187 137.716V121.902C62.1191 121.593 62.2423 121.296 62.4611 121.077C62.68 120.858 62.9767 120.735 63.2863 120.735C63.5914 120.741 63.8818 120.867 64.0949 121.085C64.308 121.304 64.4267 121.597 64.4254 121.902V140.836C64.431 140.98 64.4071 141.124 64.3552 141.259C64.3033 141.394 64.2244 141.517 64.1234 141.62C64.0224 141.723 63.9014 141.805 63.7678 141.86C63.6341 141.915 63.4907 141.942 63.3462 141.94H63.2263C62.7183 141.94 62.3585 141.64 61.9988 141.221L48.9995 124.597V140.831C48.9995 141.141 48.8765 141.438 48.6576 141.657C48.4387 141.876 48.1417 142 47.8319 142C47.5268 141.993 47.2366 141.867 47.0237 141.648C46.8109 141.43 46.6926 141.136 46.6944 140.831V121.962Z" fill="#001C32"/>
<path d="M76.5554 121.932C76.5549 121.619 76.677 121.319 76.8956 121.095C77.1142 120.871 77.4118 120.742 77.7245 120.735C78.0419 120.736 78.346 120.862 78.5704 121.086C78.7948 121.311 78.9213 121.615 78.9221 121.932V140.801C78.9213 141.118 78.7949 141.423 78.5705 141.647C78.3462 141.872 78.042 141.999 77.7245 142C77.4116 141.993 77.114 141.863 76.8955 141.639C76.677 141.415 76.5549 141.114 76.5554 140.801V121.932Z" fill="#001C32"/>
<path d="M91.0521 121.962C91.0574 121.654 91.1821 121.36 91.3999 121.142C91.6177 120.925 91.9117 120.8 92.2197 120.795H92.4895C92.7123 120.796 92.9309 120.855 93.1243 120.965C93.3178 121.076 93.4795 121.235 93.5939 121.426L101.08 132.688L108.569 121.426C108.68 121.232 108.841 121.072 109.035 120.961C109.23 120.85 109.45 120.793 109.673 120.795H109.943C110.251 120.8 110.545 120.925 110.763 121.142C110.981 121.36 111.106 121.654 111.112 121.962V140.801C111.112 141.114 110.99 141.415 110.772 141.639C110.553 141.863 110.256 141.992 109.943 142C109.627 141.993 109.326 141.865 109.103 141.642C108.879 141.418 108.751 141.117 108.745 140.801V125.167L102.037 135.021C101.767 135.41 101.467 135.619 101.047 135.619C100.628 135.619 100.299 135.41 100.03 135.021L93.3509 125.197V140.831C93.3533 140.985 93.3246 141.138 93.2667 141.281C93.2088 141.424 93.1228 141.554 93.0137 141.663C92.9047 141.772 92.7748 141.858 92.6319 141.916C92.489 141.974 92.3359 142.002 92.1818 142C92.03 141.999 91.8799 141.968 91.7403 141.908C91.6007 141.849 91.4743 141.762 91.3685 141.653C91.2626 141.545 91.1794 141.416 91.1238 141.275C91.0681 141.133 91.0411 140.983 91.0442 140.831L91.0521 121.962Z" fill="#001C32"/>
<path d="M121.752 140.293L130.258 121.692C130.558 121.033 131.008 120.645 131.755 120.645H131.875C132.595 120.645 133.074 121.033 133.344 121.692L141.85 140.263C141.941 140.45 141.995 140.653 142.008 140.861C142.008 141.163 141.888 141.453 141.674 141.666C141.461 141.88 141.171 142 140.869 142C140.301 142 139.911 141.61 139.701 141.131L137.514 136.309H126.014L123.827 141.191C123.617 141.7 123.228 142 122.69 142C122.548 142.001 122.407 141.973 122.276 141.919C122.145 141.865 122.025 141.786 121.925 141.685C121.825 141.585 121.745 141.466 121.691 141.334C121.637 141.203 121.61 141.063 121.61 140.921C121.606 140.703 121.655 140.488 121.752 140.293ZM136.583 134.152L131.76 123.423L126.938 134.152H136.583Z" fill="#001C32"/>
<path d="M93.2025 22.1662L81.5901 73.4976L87.8207 99.5578L99.4316 48.2248L93.2025 22.1662Z" fill="#001C32"/>
<path d="M60.2079 8.83868L46.5964 69.0104L51.8126 99.5577L65.4225 39.386L60.2079 8.83868Z" fill="#001C32"/>
<path d="M38.3243 0L36.3253 8.83871H36.3237L36.3253 8.84029L15.8047 99.5578H39.6875L46.5966 69.0104L60.2081 8.83871L38.3243 0Z" fill="#FF512F"/>
<path d="M71.3188 13.3259L69.3182 22.1662L65.4227 39.3861L51.8127 99.5578H75.6956L81.5901 73.4976L93.2026 22.1662L71.3188 13.3259Z" fill="#317AFF"/>
<path d="M104.312 26.6534L99.4317 48.2248L87.8208 99.5578H111.704L126.196 35.4921L104.312 26.6534Z" fill="#91919D"/>
</g>
<defs>
<clipPath id="clip0_221_3068">
<rect width="142" height="142" fill="white"/>
</clipPath>
</defs>
</svg>
