<svg width="44" height="44" viewBox="0 0 44 44" fill="none" xmlns="http://www.w3.org/2000/svg">
<path d="M26.1448 20.9044C25.624 20.861 25.1022 20.9758 24.6477 21.2338C24.1932 21.4918 23.8271 21.881 23.5974 22.3504C23.3677 22.8198 23.285 23.3477 23.3602 23.8649C23.4354 24.3821 23.6649 24.8645 24.0188 25.2491C24.3727 25.6337 24.8344 25.9026 25.3435 26.0205C25.8527 26.1384 26.3856 26.0999 26.8725 25.91C27.3594 25.7201 27.7776 25.3877 28.0725 24.9562C28.3674 24.5247 28.5252 24.0142 28.5252 23.4916C28.5526 22.8329 28.3172 22.1902 27.8708 21.705C27.4244 21.2198 26.8035 20.9318 26.1448 20.9044ZM17.644 20.9044C16.9947 20.958 16.3893 21.2538 15.9479 21.7331C15.5066 22.2124 15.2616 22.8401 15.2616 23.4916C15.2616 24.1431 15.5066 24.7708 15.9479 25.2501C16.3893 25.7294 16.9947 26.0252 17.644 26.0788C18.2933 26.0252 18.8988 25.7294 19.3401 25.2501C19.7814 24.7708 20.0264 24.1431 20.0264 23.4916C20.0264 22.8401 19.7814 22.2124 19.3401 21.7331C18.8988 21.2538 18.2933 20.958 17.644 20.9044ZM22 0C17.6488 0 13.3953 1.29028 9.77746 3.70767C6.15958 6.12506 3.33979 9.56099 1.67466 13.581C0.00953222 17.6009 -0.426141 22.0244 0.422734 26.292C1.27161 30.5596 3.3669 34.4796 6.44366 37.5563C9.52041 40.6331 13.4404 42.7284 17.708 43.5773C21.9756 44.4261 26.3991 43.9905 30.419 42.3253C34.439 40.6602 37.8749 37.8404 40.2923 34.2225C42.7097 30.6047 44 26.3512 44 22C44 16.1652 41.6822 10.5694 37.5564 6.44365C33.4306 2.31785 27.8348 0 22 0V0ZM28.4768 31.7856C28.4768 31.7856 27.6364 30.8 26.9412 29.92C29.9904 29.04 31.1564 27.148 31.1564 27.148C30.3177 27.705 29.4188 28.1655 28.4768 28.5208C27.3862 28.9779 26.2464 29.3072 25.08 29.502C23.0866 29.876 21.041 29.876 19.0476 29.502C17.8785 29.2719 16.7328 28.9361 15.6244 28.4988C15.0395 28.2738 14.4706 28.0091 13.9216 27.7068C13.8512 27.6584 13.7808 27.6364 13.7104 27.588C13.6833 27.5618 13.6596 27.5322 13.64 27.5C13.222 27.2668 12.9888 27.104 12.9888 27.104C12.9888 27.104 14.1064 28.9652 17.0632 29.8496C16.368 30.7296 15.5056 31.7856 15.5056 31.7856C10.3576 31.6228 8.39961 28.2656 8.39961 28.2656C8.47038 23.5355 9.61535 18.8834 11.748 14.6608C15.1052 12.144 18.2952 12.2144 18.2952 12.2144L18.5284 12.496C14.3352 13.706 12.4036 15.5452 12.4036 15.5452C12.4036 15.5452 12.914 15.268 13.7764 14.872C15.4485 14.1085 17.2303 13.6126 19.0564 13.4024C19.187 13.3769 19.3194 13.3622 19.4524 13.3584C21.0127 13.1537 22.5919 13.1375 24.156 13.31C26.6171 13.5913 28.9996 14.3505 31.1696 15.5452C31.1696 15.5452 29.3304 13.7852 25.3704 12.5884L25.696 12.2144C25.696 12.2144 28.886 12.144 32.2432 14.6608C34.3742 18.8764 35.5205 23.5206 35.596 28.2436C35.596 28.2436 33.6248 31.6228 28.4768 31.7856Z" fill="#21252B"/>
</svg>
