<svg width="44" height="44" viewBox="0 0 44 44" fill="none" xmlns="http://www.w3.org/2000/svg">
<path fill-rule="evenodd" clip-rule="evenodd" d="M7.74498 5.23655C11.7254 1.84233 16.7798 -0.0143289 22.0001 8.32772e-05C27.2191 -0.0142977 32.2724 1.84153 36.2524 5.23434C40.2325 8.62715 42.8787 13.3347 43.7159 18.5117C44.553 23.6888 43.5264 28.9961 40.8202 33.4809C38.114 37.9657 33.9056 41.3341 28.9506 42.9813C27.836 43.1974 27.4411 42.5139 27.4411 41.923C27.4411 41.6838 27.444 41.2638 27.4479 40.7018V40.7015V40.7012V40.7009V40.7005V40.7001V40.6998L27.4479 40.6992L27.4479 40.6984L27.4479 40.6973C27.4557 39.5603 27.4674 37.8447 27.4674 35.8729C27.4674 33.818 26.7654 32.4775 25.9799 31.7896C30.8637 31.2472 35.9976 29.3819 35.9976 20.9108C36.0302 18.7195 35.2208 16.5999 33.7378 14.993C33.9616 14.4506 34.7163 12.1973 33.5228 9.15901C33.5228 9.15901 31.6843 8.56811 27.4982 11.4212C23.9009 10.4276 20.1036 10.4276 16.5063 11.4212C12.3159 8.56811 10.4729 9.15901 10.4729 9.15901C9.28379 12.1973 10.0341 14.4374 10.2623 14.993C8.78087 16.6009 7.97172 18.7198 8.00251 20.9108C8.00251 29.3598 13.1232 31.2516 17.9983 31.8248C17.1978 32.6094 16.7029 33.6558 16.6029 34.7749C15.3523 35.3394 12.1754 36.3139 10.2184 32.9405C10.2184 32.9405 9.05123 30.8238 6.85725 30.6695C6.85725 30.6695 4.71593 30.6254 6.70367 31.9924C6.70367 31.9924 8.14292 32.6715 9.14337 35.2203C9.14337 35.2203 10.429 39.1449 16.5327 37.822C16.5634 39.6609 16.5634 41.3409 16.5634 41.923C16.5634 42.5051 16.1597 43.1886 15.0627 42.9858C10.1055 41.3413 5.89418 37.9745 3.18525 33.4899C0.476311 29.0054 -0.552708 23.6971 0.283037 18.5186C1.11878 13.3401 3.76452 8.63077 7.74498 5.23655ZM8.19653 31.7823C8.26691 31.7692 8.32947 31.7291 8.37104 31.6705C8.42369 31.5602 8.33155 31.4147 8.17358 31.3398C8.01561 31.2648 7.84887 31.3045 7.79621 31.4103C7.74356 31.5162 7.83571 31.6661 7.99367 31.741C8.05342 31.7807 8.12614 31.7955 8.19653 31.7823ZM9.27505 32.6671C9.16973 32.7641 8.96789 32.72 8.83625 32.5656C8.70461 32.4113 8.66512 32.2085 8.77482 32.1247C8.88452 32.0409 9.07759 32.0762 9.21361 32.2261C9.34964 32.376 9.38474 32.5877 9.27505 32.6671ZM9.63482 33.7651C9.77084 33.9547 9.99024 34.0517 10.1219 33.9547H10.1263C10.2623 33.8665 10.2623 33.6107 10.1263 33.4255C9.99024 33.2403 9.77084 33.1565 9.63482 33.2403C9.49879 33.3241 9.49879 33.5755 9.63482 33.7651ZM11.311 35.163C11.1882 35.2997 10.9337 35.2644 10.745 35.0792C10.5563 34.894 10.4993 34.6382 10.6221 34.5191C10.745 34.4001 10.9995 34.4221 11.1882 34.6029C11.3768 34.7837 11.4383 35.0439 11.311 35.163ZM12.3948 36.0537C12.6449 36.1287 12.8907 36.0493 12.9433 35.8773C12.996 35.7098 12.8336 35.5157 12.5835 35.4364C12.3334 35.357 12.0833 35.4496 12.035 35.6127C11.9868 35.7759 12.1447 35.9787 12.3948 36.0537ZM14.738 36.0096C14.738 36.1904 14.5362 36.3404 14.2729 36.3448C14.0096 36.3492 13.799 36.2037 13.7946 36.0229C13.7902 35.8421 14.0008 35.6921 14.2641 35.6877C14.5274 35.6833 14.738 35.8288 14.738 36.0096ZM16.0017 36.1287C16.2606 36.0802 16.4405 35.895 16.4098 35.7186C16.3791 35.5378 16.1421 35.4276 15.8876 35.4761C15.6331 35.5246 15.4488 35.7186 15.4796 35.8906C15.5103 36.0625 15.7428 36.1772 16.0017 36.1287Z" fill="#21252B"/>
</svg>
