<svg width="50" height="50" viewBox="0 0 50 50" fill="none" xmlns="http://www.w3.org/2000/svg">
<path d="M25 50C38.8071 50 50 38.8071 50 25C50 11.1929 38.8071 0 25 0C11.1929 0 0 11.1929 0 25C0 38.8071 11.1929 50 25 50Z" fill="#FCFCFD"/>
<path d="M30.5301 15.885L27.6401 28.635L29.1901 35.1125L32.0776 22.3625L30.5301 15.885Z" fill="#001C32"/>
<path d="M22.3124 12.5725L18.9224 27.53L20.2199 35.125L23.6099 20.165L22.3124 12.5725Z" fill="#001C32"/>
<path d="M16.855 10.375L11.25 35.1225H17.2L18.92 27.5275L22.3075 12.57L16.855 10.375Z" fill="#FF512F"/>
<path d="M25.0802 13.6925L23.6102 20.17L20.2202 35.1225H26.1702L27.6402 28.645L30.5327 15.895L25.0802 13.6925Z" fill="#317AFF"/>
<path d="M33.2974 17L32.0824 22.3625L29.1899 35.1125H35.1399L38.7499 19.1975L33.2974 17Z" fill="#91919D"/>
</svg>
