<svg width="44" height="44" viewBox="0 0 44 44" fill="none" xmlns="http://www.w3.org/2000/svg">
<g clip-path="url(#clip0_256_574)">
<path d="M22 0C17.6488 0 13.3953 1.29028 9.77747 3.70767C6.15958 6.12506 3.33979 9.56099 1.67466 13.581C0.00953222 17.6009 -0.426141 22.0244 0.422734 26.292C1.27161 30.5596 3.36691 34.4796 6.44366 37.5564C9.52042 40.6331 13.4404 42.7284 17.708 43.5773C21.9756 44.4262 26.3991 43.9905 30.419 42.3254C34.439 40.6602 37.875 37.8404 40.2923 34.2225C42.7097 30.6047 44 26.3512 44 22C44 16.1652 41.6822 10.5695 37.5564 6.44365C33.4306 2.31785 27.8348 0 22 0V0ZM33.0572 17.8332C33.0572 18.0532 33.0572 18.2732 33.0572 18.5152C33.066 25.52 27.72 33.6028 17.974 33.6028C15.0959 33.6091 12.2782 32.7774 9.86481 31.2092C10.2852 31.2605 10.7085 31.2855 11.132 31.284C13.5239 31.2901 15.8483 30.492 17.732 29.018C16.6212 29.0052 15.5427 28.6424 14.65 27.9812C13.7574 27.32 13.096 26.3941 12.76 25.3352C13.0889 25.4007 13.4235 25.4331 13.7588 25.432C14.2313 25.4319 14.7017 25.3698 15.158 25.2472C13.9592 25.001 12.8821 24.3487 12.1085 23.4004C11.3349 22.452 10.9123 21.2658 10.912 20.042V19.976C11.6466 20.3857 12.4692 20.6121 13.31 20.636C12.1829 19.892 11.3836 18.7444 11.0767 17.4292C10.7698 16.114 10.9786 14.7312 11.66 13.5652C12.9918 15.2045 14.6535 16.5452 16.5372 17.5004C18.421 18.4555 20.4846 19.0037 22.594 19.1092C22.4914 18.7141 22.4396 18.3074 22.44 17.8992C22.4279 16.8306 22.7404 15.7835 23.336 14.8963C23.9317 14.0091 24.7826 13.3235 25.7762 12.9302C26.7698 12.5368 27.8594 12.4542 28.901 12.6933C29.9425 12.9324 30.887 13.4819 31.6096 14.2692C32.7966 14.0335 33.9348 13.5975 34.9756 12.98C34.5843 14.2122 33.7546 15.258 32.6436 15.9192C33.6956 15.7919 34.723 15.5102 35.6928 15.0832C34.9809 16.1462 34.089 17.0768 33.0572 17.8332Z" fill="#21252B"/>
</g>
<defs>
<clipPath id="clip0_256_574">
<rect width="44" height="44" fill="white"/>
</clipPath>
</defs>
</svg>
