<svg width="44" height="44" viewBox="0 0 44 44" fill="none" xmlns="http://www.w3.org/2000/svg">
<g clip-path="url(#clip0_256_567)">
<path fill-rule="evenodd" clip-rule="evenodd" d="M22 0C17.6488 0 13.3953 1.29028 9.77747 3.70767C6.15958 6.12506 3.33979 9.56099 1.67466 13.581C0.00953222 17.6009 -0.426141 22.0244 0.422734 26.292C1.27161 30.5596 3.36691 34.4796 6.44366 37.5564C9.52042 40.6331 13.4404 42.7284 17.708 43.5773C21.9756 44.4262 26.3991 43.9905 30.419 42.3254C34.439 40.6602 37.875 37.8404 40.2923 34.2225C42.7097 30.6047 44 26.3512 44 22C44 16.1652 41.6822 10.5695 37.5564 6.44365C33.4306 2.31785 27.8348 0 22 0V0ZM32.1992 14.96C31.8648 18.4404 30.4392 26.884 29.7044 30.8C29.3964 32.45 28.7892 33 28.1996 33.0572C26.9236 33.1716 25.9556 32.2124 24.7148 31.4028C22.7788 30.1312 21.6876 29.3436 19.8044 28.1028C17.6352 26.6728 19.0432 25.9028 20.2796 24.5828C20.6052 24.244 26.2328 19.1268 26.3428 18.6604C26.3578 18.5925 26.3564 18.5219 26.3388 18.4546C26.3212 18.3873 26.2879 18.3251 26.2416 18.2732C26.1761 18.2336 26.1027 18.2092 26.0266 18.2016C25.9505 18.1939 25.8736 18.2034 25.8016 18.2292C25.608 18.2732 22.5148 20.3177 16.522 24.3628C15.8377 24.8966 15.0042 25.2042 14.1372 25.2428C12.9709 25.1018 11.8241 24.8302 10.7184 24.4332C9.34121 23.9932 8.24561 23.7468 8.33801 22.9856C8.39081 22.5896 8.93641 22.1848 9.97481 21.7712C16.3783 18.9728 20.6492 17.1292 22.7876 16.2404C28.8992 13.7016 30.1664 13.2572 30.9936 13.244C31.2978 13.2378 31.5963 13.3271 31.8472 13.4992C32.0206 13.6467 32.1321 13.854 32.1596 14.08C32.2061 14.3709 32.2193 14.6661 32.1992 14.96Z" fill="#21252B"/>
</g>
<defs>
<clipPath id="clip0_256_567">
<rect width="44" height="44" fill="white"/>
</clipPath>
</defs>
</svg>
