<svg width="44" height="44" viewBox="0 0 44 44" fill="none" xmlns="http://www.w3.org/2000/svg">
<path d="M22 0C17.6488 0 13.3953 1.29028 9.77746 3.70767C6.15958 6.12506 3.33979 9.56099 1.67466 13.581C0.00953222 17.6009 -0.426141 22.0244 0.422734 26.292C1.27161 30.5596 3.3669 34.4796 6.44366 37.5563C9.52041 40.6331 13.4404 42.7284 17.708 43.5773C21.9756 44.4261 26.3991 43.9905 30.419 42.3253C34.439 40.6602 37.8749 37.8404 40.2923 34.2225C42.7097 30.6047 44 26.3512 44 22C44 16.1652 41.6822 10.5694 37.5564 6.44365C33.4306 2.31785 27.8348 0 22 0ZM35.7192 28.8948C35.5559 29.5011 35.2363 30.0539 34.7923 30.4979C34.3483 30.9419 33.7955 31.2615 33.1892 31.4248C30.954 32.0232 22 32.0232 22 32.0232C22 32.0232 13.046 32.0232 10.8108 31.4248C10.2045 31.2615 9.65172 30.9419 9.20773 30.4979C8.76374 30.0539 8.44411 29.5011 8.28081 28.8948C7.68241 26.6596 7.68241 22 7.68241 22C7.68241 22 7.68241 17.3404 8.28081 15.1052C8.44411 14.4989 8.76374 13.9461 9.20773 13.5021C9.65172 13.0581 10.2045 12.7385 10.8108 12.5752C13.046 11.9768 22 11.9768 22 11.9768C22 11.9768 30.954 11.9768 33.1892 12.5752C33.7955 12.7385 34.3483 13.0581 34.7923 13.5021C35.2363 13.9461 35.5559 14.4989 35.7192 15.1052C36.3176 17.3404 36.3176 22 36.3176 22C36.3176 22 36.3176 26.6596 35.7192 28.8948ZM19.1356 26.2944L26.576 22L19.1356 17.7056V26.2944Z" fill="#21252B"/>
</svg>
